<?xml version="1.0" encoding="utf-8"?>
<?xml-stylesheet type="text/xsl" href="rss1.xsl"?>
<rss version="2.0" xmlns:atom="http://www.w3.org/2005/Atom" xmlns:content="http://purl.org/rss/1.0/modules/content/" xmlns:dc="http://purl.org/dc/elements/1.1/" xmlns:media="http://search.yahoo.com/mrss/">
<channel>
 <title>Getty</title>
 <link>http://www.gettyimg.com/</link>
 <atom:link href="http://www.gettyimg.com/" rel="self" type="application/rss+xml" />

 
                <item>
                <title><![CDATA[【Introductions &amp; Farewells】Hi]]></title>
                <link><![CDATA[https://sharemania.us/threads/hi.234642/]]></link>
                <description><![CDATA[<article>
<blockquote class="messageText SelectQuoteContainer ugc baseHtml">
Greetings from NZ<br>
Thanks for everyone who supports this great site
<div class="messageTextEndMarker">&nbsp;</div>
</blockquote>
</article>]]></description>
                <author><![CDATA[MeganShah]]></author>
                </item>

                
                <item>
                <title><![CDATA[【Requests】[REQ AUD] - Ne-Yo - Because Of You (Remixes) &amp; Ne-Yo - Closer (Remixes) [Qobuz]]]></title>
                <link><![CDATA[https://sharemania.us/threads/ne-yo-because-of-you-remixes-ne-yo-closer-remixes-qobuz.234641/]]></link>
                <description><![CDATA[<article>
<blockquote class="messageText SelectQuoteContainer ugc baseHtml">
Hello Everyone, <br>
<br>
I'd like to request these releases if possible please in FLAC. <br>
<br>
Thank you so much in advance!<br>
<br>
Ne-Yo - Because Of You (Remixes)<br>
<a href="https://www.qobuz.com/us-en/album/because-of-you-remixes-ne-yo/u3sbgjrq9o5lc" target="_blank" class="externalLink" rel="nofollow">https://www.qobuz.com/us-en/album/because-of-you-remixes-ne-yo/u3sbgjrq9o5lc</a><br>
<br>
Ne-Yo - Because Of You (Sunfreakz Remix)<br>
<a href="https://www.qobuz.com/ie-en/album/because-of-you-ne-yo/0060249849422" target="_blank" class="externalLink" rel="nofollow">https://www.qobuz.com/ie-en/album/because-of-you-ne-yo/0060249849422</a><br>
<br>
Ne-Yo - Because Of You (Sunfreakz Dub)<br>
<a href="https://www.qobuz.com/ie-en/album/because-of-you-ne-yo/0060249849423" target="_blank" class="externalLink" rel="nofollow">https://www.qobuz.com/ie-en/album/because-of-you-ne-yo/0060249849423</a><br>
<br>
Ne-Yo - Closer (Remixes)<br>
<a href="https://www.qobuz.com/ie-en/album/closer-ne-yo/0060251777334" target="_blank" class="externalLink" rel="nofollow">https://www.qobuz.com/ie-en/album/closer-ne-yo/0060251777334</a><br>
<br>
Ne-Yo - Closer (Remixes) (Stonebridge Radio Edit) (Maxi-Single Promo)<br>
<a href="https://www.discogs.com/release/1739193-Ne-Yo-Closer-Remixes" target="_blank" class="externalLink" rel="nofollow">https://www.discogs.com/release/1739193-Ne-Yo-Closer-Remixes</a>
<div class="messageTextEndMarker">&nbsp;</div>
</blockquote>
</article>]]></description>
                <author><![CDATA[MeganShah]]></author>
                </item>

                
                <item>
                <title><![CDATA[【Cinema Center】SERIES - Zoey.101.S01.540p.PMTP.WEB-DL.AAC2.0.x264-Samuel]]></title>
                <link><![CDATA[https://sharemania.us/threads/zoey-101-s01-540p-pmtp-web-dl-aac2-0-x264-samuel.234643/]]></link>
                <description><![CDATA[<article>
<blockquote class="messageText SelectQuoteContainer ugc baseHtml">
<div style="text-align: center"><b><span style="font-size: 26px">Zoey 101</span><br>
<span style="font-size: 22px">Season 1</span></b><br>
<img src="https://i.imgur.com/tGbxKDn.jpg" class="bbCodeImage LbImage" alt="[​IMG]" data-url="https://i.imgur.com/tGbxKDn.jpg" style=""><br>
<b><a href="https://i.imgur.com/2o3o5AW.jpg" target="_blank" class="externalLink" rel="nofollow">Alternate Artwork 1</a></b> | <b><a href="https://i.imgur.com/IP920VY.jpg" target="_blank" class="externalLink" rel="nofollow">Alternate Artwork 2</a></b> | <b><a href="https://i.imgur.com/1J4XGrz.jpg" target="_blank" class="externalLink" rel="nofollow">Hero Portrait Art</a></b> | <b><a href="https://i.imgur.com/mikNGZT.jpg" target="_blank" class="externalLink" rel="nofollow">Hero Banner Art</a></b> | <b><a href="https://i.imgur.com/UAyYXNE.jpg" target="_blank" class="externalLink" rel="nofollow">Key Art</a></b><br>
<br>
KIDS • 2005 • 4 SEASONS • TV-G<br>
<b>Starring:</b> Jamie Lynn Spears, Paul Butcher, Sean Flynn, Christopher Massey, Erin Sanders<br>
<br>
<div class="bbCodeBlock bbCodeQuote">
<aside>
<blockquote class="quoteContainer"><div class="quote"><b><span style="font-size: 15px"><span style="font-family: 'Arial'">Description</span></span></b><br>
A girl enrolls in a formerly all-boys school.</div><div class="quoteExpand">Click to expand...</div></blockquote>
</aside>
</div>
<div class="bbCodeBlock bbCodeQuote">
<aside>
<blockquote class="quoteContainer"><div class="quote"><b><span style="font-size: 15px"><span style="font-family: 'Arial'">Long Description</span></span></b><br>
Teenager Zoey settles in at her new boarding school in Malibu and makes a wide range of new friends. The Pacific Coast Academy used to be a boys-only school, and since the girls have arrived so has the romance. Zoey and roommates find their way together facing teen topics from a light-hearted perspective.</div><div class="quoteExpand">Click to expand...</div></blockquote>
</aside>
</div>
<div class="bbCodeBlock bbCodeQuote">
<aside>
<blockquote class="quoteContainer"><div class="quote"><span style="font-family: 'Arial'"><span style="font-size: 15px"><b>Trailers</b></span></span><br>
<span data-s9e-mediaembed="googledrive" style="display:inline-block;width:100%;max-width:640px"><span style="display:block;overflow:hidden;position:relative;padding-bottom:75%"><iframe allowfullscreen="" loading="lazy" scrolling="no" src="//drive.google.com/file/d/10HriNKMTmFx6wfG9e_7dEJ15q9e8PkxP/preview" style="border:0;height:100%;left:0;position:absolute;width:100%"></iframe></span></span></div><div class="quoteExpand quoteCut">Click to expand...</div></blockquote>
</aside>
</div>
<div class="bbCodeBlock bbCodeQuote">
<aside>
<blockquote class="quoteContainer"><div class="quote"><span style="font-family: 'Arial'"><span style="font-size: 15px"><b>Accessibility</b></span></span><br>
<b>Audio languages:</b> English<br>
<b>Subtitles:</b> English (CC)</div><div class="quoteExpand">Click to expand...</div></blockquote>
</aside>
</div>
<div class="bbCodeBlock bbCodeQuote">
<aside>
<blockquote class="quoteContainer"><div class="quote"><b><span style="font-size: 15px"><span style="font-family: 'Arial'">Source</span></span></b><br>
<img src="https://i.imgur.com/RoBspgv.png" class="bbCodeImage LbImage" alt="[​IMG]" data-url="https://i.imgur.com/RoBspgv.png" style=""></div><div class="quoteExpand">Click to expand...</div></blockquote>
</aside>
</div>
<div class="bbCodeBlock bbCodeQuote">
<aside>
<blockquote class="quoteContainer"><div class="quote"><b><span style="font-size: 15px">Release Name</span></b><br>
Zoey.101.S01.540p.PMTP.WEB-DL.AAC2.0.x264-Samuel</div><div class="quoteExpand">Click to expand...</div></blockquote>
</aside>
</div>
<div class="ToggleTriggerAnchor bbCodeSpoilerContainer">
<button type="button" class="button bbCodeSpoilerButton ToggleTrigger Tooltip JsOnly" data-target="> .SpoilerTarget"><span>Spoiler: <span class="SpoilerTitle">Media Information</span></span></button>
<div class="SpoilerTarget bbCodeSpoilerText"><b><span style="text-decoration: underline">Episode 1: Welcome to PCA</span></b><br>
General<br>
Complete name : Zoey.101.S01E01.Welcome.to.PCA.540p.PMTP.WEB-DL.AAC2.0.x264-Samuel.mkv<br>
Format : Matroska<br>
Format version : Version 4<br>
File size : 768 MiB<br>
Duration : 23 min 16 s<br>
Overall bit rate : 4 614 kb/s<br>
Frame rate : 23.976 FPS<br>
Encoded date : 2023-12-23 05:11:38 UTC<br>
Writing application : mkvmerge v72.0.0 ('Minuano (Six-eight)') 64-bit<br>
Writing library : libebml v1.4.4 + libmatroska v1.7.1<br>
<br>
Video<br>
ID : 1<br>
Format : AVC<br>
Format/Info : Advanced Video Codec<br>
Format profile : High@L4<br>
Format settings : CABAC / 5 Ref Frames<br>
Format settings, CABAC : Yes<br>
Format settings, Reference frames : 5 frames<br>
Codec ID : V_MPEG4/ISO/AVC<br>
Duration : 23 min 16 s<br>
Bit rate : 4 500 kb/s<br>
Width : 720 pixels<br>
Height : 540 pixels<br>
Display aspect ratio : 4:3<br>
Frame rate mode : Constant<br>
Frame rate : 23.976 (24000/1001) FPS<br>
Color space : YUV<br>
Chroma subsampling : 4:2:0<br>
Bit depth : 8 bits<br>
Scan type : Progressive<br>
Bits/(Pixel*Frame) : 0.483<br>
Stream size : 747 MiB (97%)<br>
Writing library : x264 core 161 r3015 4c2aafd<br>
Encoding settings : cabac=1 / ref=5 / deblock=1:0:0 / analyse=0x3:0x113 / me=hex / subme=8 / psy=1 / psy_rd=1.00:0.00 / mixed_ref=1 / me_range=16 / chroma_me=1 / trellis=2 / 8x8dct=1 / cqm=0 / deadzone=21,11 / fast_pskip=1 / chroma_qp_offset=-2 / threads=6 / lookahead_threads=1 / sliced_threads=0 / nr=0 / decimate=1 / interlaced=0 / bluray_compat=0 / stitchable=1 / constrained_intra=0 / bframes=3 / b_pyramid=2 / b_adapt=1 / b_bias=0 / direct=3 / weightb=1 / open_gop=0 / weightp=2 / keyint=48 / keyint_min=4 / scenecut=0 / intra_refresh=0 / rc_lookahead=48 / rc=2pass / mbtree=1 / bitrate=4500 / ratetol=1.0 / qcomp=0.60 / qpmin=0 / qpmax=69 / qpstep=4 / cplxblur=20.0 / qblur=0.5 / vbv_maxrate=5400 / vbv_bufsize=4500 / nal_hrd=none / filler=0 / ip_ratio=1.40 / aq=1:1.00<br>
Default : Yes<br>
Forced : No<br>
<br>
Audio<br>
ID : 2<br>
Format : AAC LC<br>
Format/Info : Advanced Audio Codec Low Complexity<br>
Codec ID : A_AAC-2<br>
Duration : 23 min 16 s<br>
Bit rate : 125 kb/s<br>
Channel(s) : 2 channels<br>
Channel layout : L R<br>
Sampling rate : 48.0 kHz<br>
Frame rate : 46.875 FPS (1024 SPF)<br>
Compression mode : Lossy<br>
Stream size : 20.8 MiB (3%)<br>
Language : English<br>
Default : Yes<br>
Forced : No<br>
<br>
Text<br>
ID : 3<br>
Format : UTF-8<br>
Codec ID : S_TEXT/UTF8<br>
Codec ID/Info : UTF-8 Plain Text<br>
Duration : 23 min 12 s<br>
Bit rate : 99 b/s<br>
Frame rate : 0.426 FPS<br>
Count of elements : 593<br>
Stream size : 16.9 KiB (0%)<br>
Language : English<br>
Default : No<br>
Forced : No<br>
<br>
Menu<br>
00:00:01.000 : en:Intro<br>
00:00:40.000 : en:Content<br>
00:22:47.000 : en:Credits<br>
<br>
<b><span style="text-decoration: underline">Episode 2: New Roomies</span></b><br>
General<br>
Complete name : Zoey.101.S01E02.New.Roomies.540p.PMTP.WEB-DL.AAC2.0.x264-Samuel.mkv<br>
Format : Matroska<br>
Format version : Version 4<br>
File size : 743 MiB<br>
Duration : 22 min 28 s<br>
Overall bit rate : 4 621 kb/s<br>
Frame rate : 23.976 FPS<br>
Encoded date : 2023-12-23 05:13:53 UTC<br>
Writing application : mkvmerge v72.0.0 ('Minuano (Six-eight)') 64-bit<br>
Writing library : libebml v1.4.4 + libmatroska v1.7.1<br>
<br>
Video<br>
ID : 1<br>
Format : AVC<br>
Format/Info : Advanced Video Codec<br>
Format profile : High@L4<br>
Format settings : CABAC / 5 Ref Frames<br>
Format settings, CABAC : Yes<br>
Format settings, Reference frames : 5 frames<br>
Codec ID : V_MPEG4/ISO/AVC<br>
Duration : 22 min 28 s<br>
Bit rate : 4 500 kb/s<br>
Width : 720 pixels<br>
Height : 540 pixels<br>
Display aspect ratio : 4:3<br>
Frame rate mode : Constant<br>
Frame rate : 23.976 (24000/1001) FPS<br>
Color space : YUV<br>
Chroma subsampling : 4:2:0<br>
Bit depth : 8 bits<br>
Scan type : Progressive<br>
Bits/(Pixel*Frame) : 0.483<br>
Stream size : 722 MiB (97%)<br>
Writing library : x264 core 161 r3015 4c2aafd<br>
Encoding settings : cabac=1 / ref=5 / deblock=1:0:0 / analyse=0x3:0x113 / me=hex / subme=8 / psy=1 / psy_rd=1.00:0.00 / mixed_ref=1 / me_range=16 / chroma_me=1 / trellis=2 / 8x8dct=1 / cqm=0 / deadzone=21,11 / fast_pskip=1 / chroma_qp_offset=-2 / threads=6 / lookahead_threads=1 / sliced_threads=0 / nr=0 / decimate=1 / interlaced=0 / bluray_compat=0 / stitchable=1 / constrained_intra=0 / bframes=3 / b_pyramid=2 / b_adapt=1 / b_bias=0 / direct=3 / weightb=1 / open_gop=0 / weightp=2 / keyint=48 / keyint_min=4 / scenecut=0 / intra_refresh=0 / rc_lookahead=48 / rc=2pass / mbtree=1 / bitrate=4500 / ratetol=1.0 / qcomp=0.60 / qpmin=0 / qpmax=69 / qpstep=4 / cplxblur=20.0 / qblur=0.5 / vbv_maxrate=5400 / vbv_bufsize=4500 / nal_hrd=none / filler=0 / ip_ratio=1.40 / aq=1:1.00<br>
Default : Yes<br>
Forced : No<br>
<br>
Audio<br>
ID : 2<br>
Format : AAC LC<br>
Format/Info : Advanced Audio Codec Low Complexity<br>
Codec ID : A_AAC-2<br>
Duration : 22 min 28 s<br>
Bit rate : 125 kb/s<br>
Channel(s) : 2 channels<br>
Channel layout : L R<br>
Sampling rate : 48.0 kHz<br>
Frame rate : 46.875 FPS (1024 SPF)<br>
Compression mode : Lossy<br>
Stream size : 20.0 MiB (3%)<br>
Language : English<br>
Default : Yes<br>
Forced : No<br>
<br>
Text<br>
ID : 3<br>
Format : UTF-8<br>
Codec ID : S_TEXT/UTF8<br>
Codec ID/Info : UTF-8 Plain Text<br>
Duration : 22 min 23 s<br>
Bit rate : 90 b/s<br>
Frame rate : 0.382 FPS<br>
Count of elements : 513<br>
Stream size : 14.8 KiB (0%)<br>
Language : English<br>
Default : No<br>
Forced : No<br>
<br>
Menu<br>
00:00:01.000 : en:Intro<br>
00:00:40.000 : en:Content<br>
00:22:07.000 : en:Credits<br>
<br>
<b><span style="text-decoration: underline">Episode 3: Defending Dustin</span></b><br>
General<br>
Complete name : Zoey.101.S01E03.Defending.Dustin.540p.PMTP.WEB-DL.AAC2.0.x264-Samuel.mkv<br>
Format : Matroska<br>
Format version : Version 4<br>
File size : 743 MiB<br>
Duration : 22 min 30 s<br>
Overall bit rate : 4 614 kb/s<br>
Frame rate : 23.976 FPS<br>
Encoded date : 2023-12-23 05:16:18 UTC<br>
Writing application : mkvmerge v72.0.0 ('Minuano (Six-eight)') 64-bit<br>
Writing library : libebml v1.4.4 + libmatroska v1.7.1<br>
<br>
Video<br>
ID : 1<br>
Format : AVC<br>
Format/Info : Advanced Video Codec<br>
Format profile : High@L4<br>
Format settings : CABAC / 5 Ref Frames<br>
Format settings, CABAC : Yes<br>
Format settings, Reference frames : 5 frames<br>
Codec ID : V_MPEG4/ISO/AVC<br>
Duration : 22 min 30 s<br>
Bit rate : 4 500 kb/s<br>
Width : 720 pixels<br>
Height : 540 pixels<br>
Display aspect ratio : 4:3<br>
Frame rate mode : Constant<br>
Frame rate : 23.976 (24000/1001) FPS<br>
Color space : YUV<br>
Chroma subsampling : 4:2:0<br>
Bit depth : 8 bits<br>
Scan type : Progressive<br>
Bits/(Pixel*Frame) : 0.483<br>
Stream size : 722 MiB (97%)<br>
Writing library : x264 core 161 r3015 4c2aafd<br>
Encoding settings : cabac=1 / ref=5 / deblock=1:0:0 / analyse=0x3:0x113 / me=hex / subme=8 / psy=1 / psy_rd=1.00:0.00 / mixed_ref=1 / me_range=16 / chroma_me=1 / trellis=2 / 8x8dct=1 / cqm=0 / deadzone=21,11 / fast_pskip=1 / chroma_qp_offset=-2 / threads=6 / lookahead_threads=1 / sliced_threads=0 / nr=0 / decimate=1 / interlaced=0 / bluray_compat=0 / stitchable=1 / constrained_intra=0 / bframes=3 / b_pyramid=2 / b_adapt=1 / b_bias=0 / direct=3 / weightb=1 / open_gop=0 / weightp=2 / keyint=48 / keyint_min=4 / scenecut=0 / intra_refresh=0 / rc_lookahead=48 / rc=2pass / mbtree=1 / bitrate=4500 / ratetol=1.0 / qcomp=0.60 / qpmin=0 / qpmax=69 / qpstep=4 / cplxblur=20.0 / qblur=0.5 / vbv_maxrate=5400 / vbv_bufsize=4500 / nal_hrd=none / filler=0 / ip_ratio=1.40 / aq=1:1.00<br>
Default : Yes<br>
Forced : No<br>
<br>
Audio<br>
ID : 2<br>
Format : AAC LC<br>
Format/Info : Advanced Audio Codec Low Complexity<br>
Codec ID : A_AAC-2<br>
Duration : 22 min 30 s<br>
Bit rate : 125 kb/s<br>
Channel(s) : 2 channels<br>
Channel layout : L R<br>
Sampling rate : 48.0 kHz<br>
Frame rate : 46.875 FPS (1024 SPF)<br>
Compression mode : Lossy<br>
Stream size : 20.1 MiB (3%)<br>
Language : English<br>
Default : Yes<br>
Forced : No<br>
<br>
Text<br>
ID : 3<br>
Format : UTF-8<br>
Codec ID : S_TEXT/UTF8<br>
Codec ID/Info : UTF-8 Plain Text<br>
Duration : 22 min 26 s<br>
Bit rate : 91 b/s<br>
Frame rate : 0.423 FPS<br>
Count of elements : 569<br>
Stream size : 15.0 KiB (0%)<br>
Language : English<br>
Default : No<br>
Forced : No<br>
<br>
Menu<br>
00:00:01.000 : en:Intro<br>
00:00:53.000 : en:Content<br>
00:21:18.000 : en:Credits<br>
<br>
<b><span style="text-decoration: underline">Episode 4: The Play</span></b><br>
General<br>
Complete name : Zoey.101.S01E04.The.Play.540p.PMTP.WEB-DL.AAC2.0.x264-Samuel.mkv<br>
Format : Matroska<br>
Format version : Version 4<br>
File size : 743 MiB<br>
Duration : 22 min 29 s<br>
Overall bit rate : 4 620 kb/s<br>
Frame rate : 23.976 FPS<br>
Encoded date : 2023-12-23 05:18:29 UTC<br>
Writing application : mkvmerge v72.0.0 ('Minuano (Six-eight)') 64-bit<br>
Writing library : libebml v1.4.4 + libmatroska v1.7.1<br>
<br>
Video<br>
ID : 1<br>
Format : AVC<br>
Format/Info : Advanced Video Codec<br>
Format profile : High@L4<br>
Format settings : CABAC / 5 Ref Frames<br>
Format settings, CABAC : Yes<br>
Format settings, Reference frames : 5 frames<br>
Codec ID : V_MPEG4/ISO/AVC<br>
Duration : 22 min 28 s<br>
Bit rate : 4 500 kb/s<br>
Width : 720 pixels<br>
Height : 540 pixels<br>
Display aspect ratio : 4:3<br>
Frame rate mode : Constant<br>
Frame rate : 23.976 (24000/1001) FPS<br>
Color space : YUV<br>
Chroma subsampling : 4:2:0<br>
Bit depth : 8 bits<br>
Scan type : Progressive<br>
Bits/(Pixel*Frame) : 0.483<br>
Stream size : 722 MiB (97%)<br>
Writing library : x264 core 161<br>
Encoding settings : cabac=1 / ref=5 / deblock=1:0:0 / analyse=0x3:0x113 / me=hex / subme=8 / psy=1 / psy_rd=1.00:0.00 / mixed_ref=1 / me_range=16 / chroma_me=1 / trellis=2 / 8x8dct=1 / cqm=0 / deadzone=21,11 / fast_pskip=1 / chroma_qp_offset=-2 / threads=6 / lookahead_threads=1 / sliced_threads=0 / nr=0 / decimate=1 / interlaced=0 / bluray_compat=0 / stitchable=1 / constrained_intra=0 / bframes=3 / b_pyramid=2 / b_adapt=1 / b_bias=0 / direct=3 / weightb=1 / open_gop=0 / weightp=2 / keyint=48 / keyint_min=4 / scenecut=0 / intra_refresh=0 / rc_lookahead=48 / rc=2pass / mbtree=1 / bitrate=4500 / ratetol=1.0 / qcomp=0.60 / qpmin=0 / qpmax=69 / qpstep=4 / cplxblur=20.0 / qblur=0.5 / vbv_maxrate=5400 / vbv_bufsize=4500 / nal_hrd=none / filler=0 / ip_ratio=1.40 / aq=1:1.00<br>
Default : Yes<br>
Forced : No<br>
<br>
Audio<br>
ID : 2<br>
Format : AAC LC<br>
Format/Info : Advanced Audio Codec Low Complexity<br>
Codec ID : A_AAC-2<br>
Duration : 22 min 29 s<br>
Bit rate : 125 kb/s<br>
Channel(s) : 2 channels<br>
Channel layout : L R<br>
Sampling rate : 48.0 kHz<br>
Frame rate : 46.875 FPS (1024 SPF)<br>
Compression mode : Lossy<br>
Stream size : 20.1 MiB (3%)<br>
Language : English<br>
Default : Yes<br>
Forced : No<br>
<br>
Text<br>
ID : 3<br>
Format : UTF-8<br>
Codec ID : S_TEXT/UTF8<br>
Codec ID/Info : UTF-8 Plain Text<br>
Duration : 22 min 22 s<br>
Bit rate : 82 b/s<br>
Frame rate : 0.397 FPS<br>
Count of elements : 533<br>
Stream size : 13.5 KiB (0%)<br>
Language : English<br>
Default : No<br>
Forced : No<br>
<br>
Menu<br>
00:00:01.000 : en:Intro<br>
00:00:40.000 : en:Content<br>
00:22:00.000 : en:Credits<br>
<br>
<b><span style="text-decoration: underline">Episode 5: Webcam</span></b><br>
General<br>
Complete name : Zoey.101.S01E05.Webcam.540p.PMTP.WEB-DL.AAC2.0.x264-Samuel.mkv<br>
Format : Matroska<br>
Format version : Version 4<br>
File size : 743 MiB<br>
Duration : 22 min 30 s<br>
Overall bit rate : 4 611 kb/s<br>
Frame rate : 23.976 FPS<br>
Encoded date : 2023-12-23 05:20:41 UTC<br>
Writing application : mkvmerge v72.0.0 ('Minuano (Six-eight)') 64-bit<br>
Writing library : libebml v1.4.4 + libmatroska v1.7.1<br>
<br>
Video<br>
ID : 1<br>
Format : AVC<br>
Format/Info : Advanced Video Codec<br>
Format profile : High@L4<br>
Format settings : CABAC / 5 Ref Frames<br>
Format settings, CABAC : Yes<br>
Format settings, Reference frames : 5 frames<br>
Codec ID : V_MPEG4/ISO/AVC<br>
Duration : 22 min 30 s<br>
Bit rate : 4 500 kb/s<br>
Width : 720 pixels<br>
Height : 540 pixels<br>
Display aspect ratio : 4:3<br>
Frame rate mode : Constant<br>
Frame rate : 23.976 (24000/1001) FPS<br>
Color space : YUV<br>
Chroma subsampling : 4:2:0<br>
Bit depth : 8 bits<br>
Scan type : Progressive<br>
Bits/(Pixel*Frame) : 0.483<br>
Stream size : 722 MiB (97%)<br>
Writing library : x264 core 161 r3015 4c2aafd<br>
Encoding settings : cabac=1 / ref=5 / deblock=1:0:0 / analyse=0x3:0x113 / me=hex / subme=8 / psy=1 / psy_rd=1.00:0.00 / mixed_ref=1 / me_range=16 / chroma_me=1 / trellis=2 / 8x8dct=1 / cqm=0 / deadzone=21,11 / fast_pskip=1 / chroma_qp_offset=-2 / threads=6 / lookahead_threads=1 / sliced_threads=0 / nr=0 / decimate=1 / interlaced=0 / bluray_compat=0 / stitchable=1 / constrained_intra=0 / bframes=3 / b_pyramid=2 / b_adapt=1 / b_bias=0 / direct=3 / weightb=1 / open_gop=0 / weightp=2 / keyint=48 / keyint_min=4 / scenecut=0 / intra_refresh=0 / rc_lookahead=48 / rc=2pass / mbtree=1 / bitrate=4500 / ratetol=1.0 / qcomp=0.60 / qpmin=0 / qpmax=69 / qpstep=4 / cplxblur=20.0 / qblur=0.5 / vbv_maxrate=5400 / vbv_bufsize=4500 / nal_hrd=none / filler=0 / ip_ratio=1.40 / aq=1:1.00<br>
Default : Yes<br>
Forced : No<br>
<br>
Audio<br>
ID : 2<br>
Format : AAC LC<br>
Format/Info : Advanced Audio Codec Low Complexity<br>
Codec ID : A_AAC-2<br>
Duration : 22 min 30 s<br>
Bit rate : 125 kb/s<br>
Channel(s) : 2 channels<br>
Channel layout : L R<br>
Sampling rate : 48.0 kHz<br>
Frame rate : 46.875 FPS (1024 SPF)<br>
Compression mode : Lossy<br>
Stream size : 20.1 MiB (3%)<br>
Language : English<br>
Default : Yes<br>
Forced : No<br>
<br>
Text<br>
ID : 3<br>
Format : UTF-8<br>
Codec ID : S_TEXT/UTF8<br>
Codec ID/Info : UTF-8 Plain Text<br>
Duration : 22 min 26 s<br>
Bit rate : 96 b/s<br>
Frame rate : 0.406 FPS<br>
Count of elements : 546<br>
Stream size : 15.9 KiB (0%)<br>
Language : English<br>
Default : No<br>
Forced : No<br>
<br>
Menu<br>
00:00:01.000 : en:Intro<br>
00:00:53.000 : en:Content<br>
00:22:08.000 : en:Credits<br>
<br>
<b><span style="text-decoration: underline">Episode 6: Jet X</span></b><br>
General<br>
Complete name : Zoey.101.S01E06.Jet.X.540p.PMTP.WEB-DL.AAC2.0.x264-Samuel.mkv<br>
Format : Matroska<br>
Format version : Version 4<br>
File size : 744 MiB<br>
Duration : 22 min 31 s<br>
Overall bit rate : 4 617 kb/s<br>
Frame rate : 23.976 FPS<br>
Encoded date : 2023-12-23 05:22:47 UTC<br>
Writing application : mkvmerge v72.0.0 ('Minuano (Six-eight)') 64-bit<br>
Writing library : libebml v1.4.4 + libmatroska v1.7.1<br>
<br>
Video<br>
ID : 1<br>
Format : AVC<br>
Format/Info : Advanced Video Codec<br>
Format profile : High@L4<br>
Format settings : CABAC / 5 Ref Frames<br>
Format settings, CABAC : Yes<br>
Format settings, Reference frames : 5 frames<br>
Codec ID : V_MPEG4/ISO/AVC<br>
Duration : 22 min 31 s<br>
Bit rate : 4 500 kb/s<br>
Width : 720 pixels<br>
Height : 540 pixels<br>
Display aspect ratio : 4:3<br>
Frame rate mode : Constant<br>
Frame rate : 23.976 (24000/1001) FPS<br>
Color space : YUV<br>
Chroma subsampling : 4:2:0<br>
Bit depth : 8 bits<br>
Scan type : Progressive<br>
Bits/(Pixel*Frame) : 0.483<br>
Stream size : 723 MiB (97%)<br>
Writing library : x264 core 161 r3015 4c2aafd<br>
Encoding settings : cabac=1 / ref=5 / deblock=1:0:0 / analyse=0x3:0x113 / me=hex / subme=8 / psy=1 / psy_rd=1.00:0.00 / mixed_ref=1 / me_range=16 / chroma_me=1 / trellis=2 / 8x8dct=1 / cqm=0 / deadzone=21,11 / fast_pskip=1 / chroma_qp_offset=-2 / threads=6 / lookahead_threads=1 / sliced_threads=0 / nr=0 / decimate=1 / interlaced=0 / bluray_compat=0 / stitchable=1 / constrained_intra=0 / bframes=3 / b_pyramid=2 / b_adapt=1 / b_bias=0 / direct=3 / weightb=1 / open_gop=0 / weightp=2 / keyint=48 / keyint_min=4 / scenecut=0 / intra_refresh=0 / rc_lookahead=48 / rc=2pass / mbtree=1 / bitrate=4500 / ratetol=1.0 / qcomp=0.60 / qpmin=0 / qpmax=69 / qpstep=4 / cplxblur=20.0 / qblur=0.5 / vbv_maxrate=5400 / vbv_bufsize=4500 / nal_hrd=none / filler=0 / ip_ratio=1.40 / aq=1:1.00<br>
Default : Yes<br>
Forced : No<br>
<br>
Audio<br>
ID : 2<br>
Format : AAC LC<br>
Format/Info : Advanced Audio Codec Low Complexity<br>
Codec ID : A_AAC-2<br>
Duration : 22 min 31 s<br>
Bit rate : 125 kb/s<br>
Channel(s) : 2 channels<br>
Channel layout : L R<br>
Sampling rate : 48.0 kHz<br>
Frame rate : 46.875 FPS (1024 SPF)<br>
Compression mode : Lossy<br>
Stream size : 20.1 MiB (3%)<br>
Language : English<br>
Default : Yes<br>
Forced : No<br>
<br>
Text<br>
ID : 3<br>
Format : UTF-8<br>
Codec ID : S_TEXT/UTF8<br>
Codec ID/Info : UTF-8 Plain Text<br>
Duration : 22 min 24 s<br>
Bit rate : 98 b/s<br>
Frame rate : 0.444 FPS<br>
Count of elements : 597<br>
Stream size : 16.2 KiB (0%)<br>
Language : English<br>
Default : No<br>
Forced : No<br>
<br>
Menu<br>
00:00:01.000 : en:Intro<br>
00:00:40.000 : en:Content<br>
00:22:00.000 : en:Credits<br>
<br>
<b><span style="text-decoration: underline">Episode 7: Spring Fling</span></b><br>
General<br>
Complete name : Zoey.101.S01E07.Spring.Fling.540p.PMTP.WEB-DL.AAC2.0.x264-Samuel.mkv<br>
Format : Matroska<br>
Format version : Version 4<br>
File size : 744 MiB<br>
Duration : 22 min 31 s<br>
Overall bit rate : 4 616 kb/s<br>
Frame rate : 23.976 FPS<br>
Encoded date : 2023-12-23 05:24:53 UTC<br>
Writing application : mkvmerge v72.0.0 ('Minuano (Six-eight)') 64-bit<br>
Writing library : libebml v1.4.4 + libmatroska v1.7.1<br>
<br>
Video<br>
ID : 1<br>
Format : AVC<br>
Format/Info : Advanced Video Codec<br>
Format profile : High@L4<br>
Format settings : CABAC / 5 Ref Frames<br>
Format settings, CABAC : Yes<br>
Format settings, Reference frames : 5 frames<br>
Codec ID : V_MPEG4/ISO/AVC<br>
Duration : 22 min 31 s<br>
Bit rate : 4 500 kb/s<br>
Width : 720 pixels<br>
Height : 540 pixels<br>
Display aspect ratio : 4:3<br>
Frame rate mode : Constant<br>
Frame rate : 23.976 (24000/1001) FPS<br>
Color space : YUV<br>
Chroma subsampling : 4:2:0<br>
Bit depth : 8 bits<br>
Scan type : Progressive<br>
Bits/(Pixel*Frame) : 0.483<br>
Stream size : 723 MiB (97%)<br>
Writing library : x264 core 161 r3015 4c2aafd<br>
Encoding settings : cabac=1 / ref=5 / deblock=1:0:0 / analyse=0x3:0x113 / me=hex / subme=8 / psy=1 / psy_rd=1.00:0.00 / mixed_ref=1 / me_range=16 / chroma_me=1 / trellis=2 / 8x8dct=1 / cqm=0 / deadzone=21,11 / fast_pskip=1 / chroma_qp_offset=-2 / threads=6 / lookahead_threads=1 / sliced_threads=0 / nr=0 / decimate=1 / interlaced=0 / bluray_compat=0 / stitchable=1 / constrained_intra=0 / bframes=3 / b_pyramid=2 / b_adapt=1 / b_bias=0 / direct=3 / weightb=1 / open_gop=0 / weightp=2 / keyint=48 / keyint_min=4 / scenecut=0 / intra_refresh=0 / rc_lookahead=48 / rc=2pass / mbtree=1 / bitrate=4500 / ratetol=1.0 / qcomp=0.60 / qpmin=0 / qpmax=69 / qpstep=4 / cplxblur=20.0 / qblur=0.5 / vbv_maxrate=5400 / vbv_bufsize=4500 / nal_hrd=none / filler=0 / ip_ratio=1.40 / aq=1:1.00<br>
Default : Yes<br>
Forced : No<br>
<br>
Audio<br>
ID : 2<br>
Format : AAC LC<br>
Format/Info : Advanced Audio Codec Low Complexity<br>
Codec ID : A_AAC-2<br>
Duration : 22 min 31 s<br>
Bit rate : 125 kb/s<br>
Channel(s) : 2 channels<br>
Channel layout : L R<br>
Sampling rate : 48.0 kHz<br>
Frame rate : 46.875 FPS (1024 SPF)<br>
Compression mode : Lossy<br>
Stream size : 20.1 MiB (3%)<br>
Language : English<br>
Default : Yes<br>
Forced : No<br>
<br>
Text<br>
ID : 3<br>
Format : UTF-8<br>
Codec ID : S_TEXT/UTF8<br>
Codec ID/Info : UTF-8 Plain Text<br>
Duration : 22 min 25 s<br>
Bit rate : 90 b/s<br>
Frame rate : 0.430 FPS<br>
Count of elements : 579<br>
Stream size : 14.8 KiB (0%)<br>
Language : English<br>
Default : No<br>
Forced : No<br>
<br>
Menu<br>
00:00:01.000 : en:Intro<br>
00:00:40.000 : en:Content<br>
00:22:00.000 : en:Credits<br>
<br>
<b><span style="text-decoration: underline">Episode 8: Prank Week</span></b><br>
General<br>
Complete name : Zoey.101.S01E08.Prank.Week.540p.PMTP.WEB-DL.AAC2.0.x264-Samuel.mkv<br>
Format : Matroska<br>
Format version : Version 4<br>
File size : 742 MiB<br>
Duration : 22 min 30 s<br>
Overall bit rate : 4 610 kb/s<br>
Frame rate : 23.976 FPS<br>
Encoded date : 2023-12-23 05:27:07 UTC<br>
Writing application : mkvmerge v72.0.0 ('Minuano (Six-eight)') 64-bit<br>
Writing library : libebml v1.4.4 + libmatroska v1.7.1<br>
<br>
Video<br>
ID : 1<br>
Format : AVC<br>
Format/Info : Advanced Video Codec<br>
Format profile : High@L4<br>
Format settings : CABAC / 5 Ref Frames<br>
Format settings, CABAC : Yes<br>
Format settings, Reference frames : 5 frames<br>
Codec ID : V_MPEG4/ISO/AVC<br>
Duration : 22 min 30 s<br>
Bit rate : 4 500 kb/s<br>
Width : 720 pixels<br>
Height : 540 pixels<br>
Display aspect ratio : 4:3<br>
Frame rate mode : Constant<br>
Frame rate : 23.976 (24000/1001) FPS<br>
Color space : YUV<br>
Chroma subsampling : 4:2:0<br>
Bit depth : 8 bits<br>
Scan type : Progressive<br>
Bits/(Pixel*Frame) : 0.483<br>
Stream size : 722 MiB (97%)<br>
Writing library : x264 core 161 r3015 4c2aafd<br>
Encoding settings : cabac=1 / ref=5 / deblock=1:0:0 / analyse=0x3:0x113 / me=hex / subme=8 / psy=1 / psy_rd=1.00:0.00 / mixed_ref=1 / me_range=16 / chroma_me=1 / trellis=2 / 8x8dct=1 / cqm=0 / deadzone=21,11 / fast_pskip=1 / chroma_qp_offset=-2 / threads=6 / lookahead_threads=1 / sliced_threads=0 / nr=0 / decimate=1 / interlaced=0 / bluray_compat=0 / stitchable=1 / constrained_intra=0 / bframes=3 / b_pyramid=2 / b_adapt=1 / b_bias=0 / direct=3 / weightb=1 / open_gop=0 / weightp=2 / keyint=48 / keyint_min=4 / scenecut=0 / intra_refresh=0 / rc_lookahead=48 / rc=2pass / mbtree=1 / bitrate=4500 / ratetol=1.0 / qcomp=0.60 / qpmin=0 / qpmax=69 / qpstep=4 / cplxblur=20.0 / qblur=0.5 / vbv_maxrate=5400 / vbv_bufsize=4500 / nal_hrd=none / filler=0 / ip_ratio=1.40 / aq=1:1.00<br>
Default : Yes<br>
Forced : No<br>
<br>
Audio<br>
ID : 2<br>
Format : AAC LC<br>
Format/Info : Advanced Audio Codec Low Complexity<br>
Codec ID : A_AAC-2<br>
Duration : 22 min 30 s<br>
Bit rate : 125 kb/s<br>
Channel(s) : 2 channels<br>
Channel layout : L R<br>
Sampling rate : 48.0 kHz<br>
Frame rate : 46.875 FPS (1024 SPF)<br>
Compression mode : Lossy<br>
Stream size : 20.1 MiB (3%)<br>
Language : English<br>
Default : Yes<br>
Forced : No<br>
<br>
Text<br>
ID : 3<br>
Format : UTF-8<br>
Codec ID : S_TEXT/UTF8<br>
Codec ID/Info : UTF-8 Plain Text<br>
Duration : 22 min 26 s<br>
Bit rate : 91 b/s<br>
Frame rate : 0.417 FPS<br>
Count of elements : 561<br>
Stream size : 15.0 KiB (0%)<br>
Language : English<br>
Default : No<br>
Forced : No<br>
<br>
Menu<br>
00:00:01.000 : en:Intro<br>
00:00:53.000 : en:Content<br>
00:22:09.000 : en:Credits<br>
<br>
<b><span style="text-decoration: underline">Episode 9: Quinn's Date</span></b><br>
General<br>
Complete name : Zoey.101.S01E09.Quinns.Date.540p.PMTP.WEB-DL.AAC2.0.x264-Samuel.mkv<br>
Format : Matroska<br>
Format version : Version 4<br>
File size : 744 MiB<br>
Duration : 22 min 31 s<br>
Overall bit rate : 4 617 kb/s<br>
Frame rate : 23.976 FPS<br>
Encoded date : 2023-12-23 05:31:47 UTC<br>
Writing application : mkvmerge v72.0.0 ('Minuano (Six-eight)') 64-bit<br>
Writing library : libebml v1.4.4 + libmatroska v1.7.1<br>
<br>
Video<br>
ID : 1<br>
Format : AVC<br>
Format/Info : Advanced Video Codec<br>
Format profile : High@L4<br>
Format settings : CABAC / 5 Ref Frames<br>
Format settings, CABAC : Yes<br>
Format settings, Reference frames : 5 frames<br>
Codec ID : V_MPEG4/ISO/AVC<br>
Duration : 22 min 31 s<br>
Bit rate : 4 500 kb/s<br>
Width : 720 pixels<br>
Height : 540 pixels<br>
Display aspect ratio : 4:3<br>
Frame rate mode : Constant<br>
Frame rate : 23.976 (24000/1001) FPS<br>
Color space : YUV<br>
Chroma subsampling : 4:2:0<br>
Bit depth : 8 bits<br>
Scan type : Progressive<br>
Bits/(Pixel*Frame) : 0.483<br>
Stream size : 723 MiB (97%)<br>
Writing library : x264 core 161 r3015 4c2aafd<br>
Encoding settings : cabac=1 / ref=5 / deblock=1:0:0 / analyse=0x3:0x113 / me=hex / subme=8 / psy=1 / psy_rd=1.00:0.00 / mixed_ref=1 / me_range=16 / chroma_me=1 / trellis=2 / 8x8dct=1 / cqm=0 / deadzone=21,11 / fast_pskip=1 / chroma_qp_offset=-2 / threads=6 / lookahead_threads=1 / sliced_threads=0 / nr=0 / decimate=1 / interlaced=0 / bluray_compat=0 / stitchable=1 / constrained_intra=0 / bframes=3 / b_pyramid=2 / b_adapt=1 / b_bias=0 / direct=3 / weightb=1 / open_gop=0 / weightp=2 / keyint=48 / keyint_min=4 / scenecut=0 / intra_refresh=0 / rc_lookahead=48 / rc=2pass / mbtree=1 / bitrate=4500 / ratetol=1.0 / qcomp=0.60 / qpmin=0 / qpmax=69 / qpstep=4 / cplxblur=20.0 / qblur=0.5 / vbv_maxrate=5400 / vbv_bufsize=4500 / nal_hrd=none / filler=0 / ip_ratio=1.40 / aq=1:1.00<br>
Default : Yes<br>
Forced : No<br>
<br>
Audio<br>
ID : 2<br>
Format : AAC LC<br>
Format/Info : Advanced Audio Codec Low Complexity<br>
Codec ID : A_AAC-2<br>
Duration : 22 min 31 s<br>
Bit rate : 125 kb/s<br>
Channel(s) : 2 channels<br>
Channel layout : L R<br>
Sampling rate : 48.0 kHz<br>
Frame rate : 46.875 FPS (1024 SPF)<br>
Compression mode : Lossy<br>
Stream size : 20.1 MiB (3%)<br>
Language : English<br>
Default : Yes<br>
Forced : No<br>
<br>
Text<br>
ID : 3<br>
Format : UTF-8<br>
Codec ID : S_TEXT/UTF8<br>
Codec ID/Info : UTF-8 Plain Text<br>
Duration : 22 min 25 s<br>
Bit rate : 82 b/s<br>
Frame rate : 0.375 FPS<br>
Count of elements : 504<br>
Stream size : 13.5 KiB (0%)<br>
Language : English<br>
Default : No<br>
Forced : No<br>
<br>
Menu<br>
00:00:01.000 : en:Intro<br>
00:00:40.000 : en:Content<br>
00:22:06.000 : en:Credits<br>
<br>
<b><span style="text-decoration: underline">Episode 10: Backpack</span></b><br>
General<br>
Complete name : Zoey.101.S01E10.Backpack.540p.PMTP.WEB-DL.AAC2.0.x264-Samuel.mkv<br>
Format : Matroska<br>
Format version : Version 4<br>
File size : 743 MiB<br>
Duration : 22 min 31 s<br>
Overall bit rate : 4 615 kb/s<br>
Frame rate : 23.976 FPS<br>
Encoded date : 2023-12-23 05:33:50 UTC<br>
Writing application : mkvmerge v72.0.0 ('Minuano (Six-eight)') 64-bit<br>
Writing library : libebml v1.4.4 + libmatroska v1.7.1<br>
<br>
Video<br>
ID : 1<br>
Format : AVC<br>
Format/Info : Advanced Video Codec<br>
Format profile : High@L4<br>
Format settings : CABAC / 5 Ref Frames<br>
Format settings, CABAC : Yes<br>
Format settings, Reference frames : 5 frames<br>
Codec ID : V_MPEG4/ISO/AVC<br>
Duration : 22 min 31 s<br>
Bit rate : 4 500 kb/s<br>
Width : 720 pixels<br>
Height : 540 pixels<br>
Display aspect ratio : 4:3<br>
Frame rate mode : Constant<br>
Frame rate : 23.976 (24000/1001) FPS<br>
Color space : YUV<br>
Chroma subsampling : 4:2:0<br>
Bit depth : 8 bits<br>
Scan type : Progressive<br>
Bits/(Pixel*Frame) : 0.483<br>
Stream size : 723 MiB (97%)<br>
Writing library : x264 core 161 r3015 4c2aafd<br>
Encoding settings : cabac=1 / ref=5 / deblock=1:0:0 / analyse=0x3:0x113 / me=hex / subme=8 / psy=1 / psy_rd=1.00:0.00 / mixed_ref=1 / me_range=16 / chroma_me=1 / trellis=2 / 8x8dct=1 / cqm=0 / deadzone=21,11 / fast_pskip=1 / chroma_qp_offset=-2 / threads=6 / lookahead_threads=1 / sliced_threads=0 / nr=0 / decimate=1 / interlaced=0 / bluray_compat=0 / stitchable=1 / constrained_intra=0 / bframes=3 / b_pyramid=2 / b_adapt=1 / b_bias=0 / direct=3 / weightb=1 / open_gop=0 / weightp=2 / keyint=48 / keyint_min=4 / scenecut=0 / intra_refresh=0 / rc_lookahead=48 / rc=2pass / mbtree=1 / bitrate=4500 / ratetol=1.0 / qcomp=0.60 / qpmin=0 / qpmax=69 / qpstep=4 / cplxblur=20.0 / qblur=0.5 / vbv_maxrate=5400 / vbv_bufsize=4500 / nal_hrd=none / filler=0 / ip_ratio=1.40 / aq=1:1.00<br>
Default : Yes<br>
Forced : No<br>
<br>
Audio<br>
ID : 2<br>
Format : AAC LC<br>
Format/Info : Advanced Audio Codec Low Complexity<br>
Codec ID : A_AAC-2<br>
Duration : 22 min 31 s<br>
Bit rate : 125 kb/s<br>
Channel(s) : 2 channels<br>
Channel layout : L R<br>
Sampling rate : 48.0 kHz<br>
Frame rate : 46.875 FPS (1024 SPF)<br>
Compression mode : Lossy<br>
Stream size : 20.1 MiB (3%)<br>
Language : English<br>
Default : Yes<br>
Forced : No<br>
<br>
Text<br>
ID : 3<br>
Format : UTF-8<br>
Codec ID : S_TEXT/UTF8<br>
Codec ID/Info : UTF-8 Plain Text<br>
Duration : 22 min 26 s<br>
Bit rate : 90 b/s<br>
Frame rate : 0.392 FPS<br>
Count of elements : 528<br>
Stream size : 14.9 KiB (0%)<br>
Language : English<br>
Default : No<br>
Forced : No<br>
<br>
Menu<br>
00:00:01.000 : en:Intro<br>
00:00:53.000 : en:Content<br>
00:22:10.000 : en:Credits<br>
<br>
<b><span style="text-decoration: underline">Episode 11: School Dance</span></b><br>
General<br>
Complete name : Zoey.101.S01E11.School.Dance.540p.PMTP.WEB-DL.AAC2.0.x264-Samuel.mkv<br>
Format : Matroska<br>
Format version : Version 4<br>
File size : 724 MiB<br>
Duration : 21 min 54 s<br>
Overall bit rate : 4 618 kb/s<br>
Frame rate : 23.976 FPS<br>
Encoded date : 2023-12-23 05:36:02 UTC<br>
Writing application : mkvmerge v72.0.0 ('Minuano (Six-eight)') 64-bit<br>
Writing library : libebml v1.4.4 + libmatroska v1.7.1<br>
<br>
Video<br>
ID : 1<br>
Format : AVC<br>
Format/Info : Advanced Video Codec<br>
Format profile : High@L4<br>
Format settings : CABAC / 5 Ref Frames<br>
Format settings, CABAC : Yes<br>
Format settings, Reference frames : 5 frames<br>
Codec ID : V_MPEG4/ISO/AVC<br>
Duration : 21 min 54 s<br>
Bit rate : 4 500 kb/s<br>
Width : 720 pixels<br>
Height : 540 pixels<br>
Display aspect ratio : 4:3<br>
Frame rate mode : Constant<br>
Frame rate : 23.976 (24000/1001) FPS<br>
Color space : YUV<br>
Chroma subsampling : 4:2:0<br>
Bit depth : 8 bits<br>
Scan type : Progressive<br>
Bits/(Pixel*Frame) : 0.483<br>
Stream size : 703 MiB (97%)<br>
Writing library : x264 core 164 r3085 0bb85e8<br>
Encoding settings : cabac=1 / ref=5 / deblock=1:0:0 / analyse=0x3:0x113 / me=hex / subme=8 / psy=1 / psy_rd=1.00:0.00 / mixed_ref=1 / me_range=16 / chroma_me=1 / trellis=2 / 8x8dct=1 / cqm=0 / deadzone=21,11 / fast_pskip=1 / chroma_qp_offset=-2 / threads=6 / lookahead_threads=1 / sliced_threads=0 / nr=0 / decimate=1 / interlaced=0 / bluray_compat=0 / stitchable=1 / constrained_intra=0 / bframes=3 / b_pyramid=2 / b_adapt=1 / b_bias=0 / direct=3 / weightb=1 / open_gop=0 / weightp=2 / keyint=48 / keyint_min=4 / scenecut=0 / intra_refresh=0 / rc_lookahead=48 / rc=2pass / mbtree=1 / bitrate=4500 / ratetol=1.0 / qcomp=0.60 / qpmin=0 / qpmax=69 / qpstep=4 / cplxblur=20.0 / qblur=0.5 / vbv_maxrate=5400 / vbv_bufsize=4500 / nal_hrd=none / filler=0 / ip_ratio=1.40 / aq=1:1.00<br>
Default : Yes<br>
Forced : No<br>
Color range : Limited<br>
Color primaries : BT.709<br>
Transfer characteristics : BT.709<br>
Matrix coefficients : BT.709<br>
<br>
Audio<br>
ID : 2<br>
Format : AAC LC<br>
Format/Info : Advanced Audio Codec Low Complexity<br>
Codec ID : A_AAC-2<br>
Duration : 21 min 54 s<br>
Bit rate : 125 kb/s<br>
Channel(s) : 2 channels<br>
Channel layout : L R<br>
Sampling rate : 48.0 kHz<br>
Frame rate : 46.875 FPS (1024 SPF)<br>
Compression mode : Lossy<br>
Stream size : 19.6 MiB (3%)<br>
Language : English<br>
Default : Yes<br>
Forced : No<br>
<br>
Text<br>
ID : 3<br>
Format : UTF-8<br>
Codec ID : S_TEXT/UTF8<br>
Codec ID/Info : UTF-8 Plain Text<br>
Duration : 21 min 48 s<br>
Bit rate : 88 b/s<br>
Frame rate : 0.406 FPS<br>
Count of elements : 531<br>
Stream size : 14.2 KiB (0%)<br>
Language : English<br>
Default : No<br>
Forced : No<br>
<br>
Menu<br>
00:00:01.000 : en:Intro<br>
00:00:40.000 : en:Content<br>
00:21:20.000 : en:Credits<br>
<br>
<b><span style="text-decoration: underline">Episode 12: Disc Golf</span></b><br>
General<br>
Complete name : Zoey.101.S01E12.Disc.Golf.540p.PMTP.WEB-DL.AAC2.0.x264-Samuel.mkv<br>
Format : Matroska<br>
Format version : Version 4<br>
File size : 744 MiB<br>
Duration : 22 min 31 s<br>
Overall bit rate : 4 618 kb/s<br>
Frame rate : 23.976 FPS<br>
Encoded date : 2023-12-23 05:38:17 UTC<br>
Writing application : mkvmerge v72.0.0 ('Minuano (Six-eight)') 64-bit<br>
Writing library : libebml v1.4.4 + libmatroska v1.7.1<br>
<br>
Video<br>
ID : 1<br>
Format : AVC<br>
Format/Info : Advanced Video Codec<br>
Format profile : High@L4<br>
Format settings : CABAC / 5 Ref Frames<br>
Format settings, CABAC : Yes<br>
Format settings, Reference frames : 5 frames<br>
Codec ID : V_MPEG4/ISO/AVC<br>
Duration : 22 min 31 s<br>
Bit rate : 4 500 kb/s<br>
Width : 720 pixels<br>
Height : 540 pixels<br>
Display aspect ratio : 4:3<br>
Frame rate mode : Constant<br>
Frame rate : 23.976 (24000/1001) FPS<br>
Color space : YUV<br>
Chroma subsampling : 4:2:0<br>
Bit depth : 8 bits<br>
Scan type : Progressive<br>
Bits/(Pixel*Frame) : 0.483<br>
Stream size : 723 MiB (97%)<br>
Writing library : x264 core 161 r3015 4c2aafd<br>
Encoding settings : cabac=1 / ref=5 / deblock=1:0:0 / analyse=0x3:0x113 / me=hex / subme=8 / psy=1 / psy_rd=1.00:0.00 / mixed_ref=1 / me_range=16 / chroma_me=1 / trellis=2 / 8x8dct=1 / cqm=0 / deadzone=21,11 / fast_pskip=1 / chroma_qp_offset=-2 / threads=6 / lookahead_threads=1 / sliced_threads=0 / nr=0 / decimate=1 / interlaced=0 / bluray_compat=0 / stitchable=1 / constrained_intra=0 / bframes=3 / b_pyramid=2 / b_adapt=1 / b_bias=0 / direct=3 / weightb=1 / open_gop=0 / weightp=2 / keyint=48 / keyint_min=4 / scenecut=0 / intra_refresh=0 / rc_lookahead=48 / rc=2pass / mbtree=1 / bitrate=4500 / ratetol=1.0 / qcomp=0.60 / qpmin=0 / qpmax=69 / qpstep=4 / cplxblur=20.0 / qblur=0.5 / vbv_maxrate=5400 / vbv_bufsize=4500 / nal_hrd=none / filler=0 / ip_ratio=1.40 / aq=1:1.00<br>
Default : Yes<br>
Forced : No<br>
<br>
Audio<br>
ID : 2<br>
Format : AAC LC<br>
Format/Info : Advanced Audio Codec Low Complexity<br>
Codec ID : A_AAC-2<br>
Duration : 22 min 31 s<br>
Bit rate : 125 kb/s<br>
Channel(s) : 2 channels<br>
Channel layout : L R<br>
Sampling rate : 48.0 kHz<br>
Frame rate : 46.875 FPS (1024 SPF)<br>
Compression mode : Lossy<br>
Stream size : 20.1 MiB (3%)<br>
Language : English<br>
Default : Yes<br>
Forced : No<br>
<br>
Text<br>
ID : 3<br>
Format : UTF-8<br>
Codec ID : S_TEXT/UTF8<br>
Codec ID/Info : UTF-8 Plain Text<br>
Duration : 22 min 27 s<br>
Bit rate : 90 b/s<br>
Frame rate : 0.389 FPS<br>
Count of elements : 524<br>
Stream size : 14.8 KiB (0%)<br>
Language : English<br>
Default : No<br>
Forced : No<br>
<br>
Menu<br>
00:00:01.000 : en:Intro<br>
00:00:40.000 : en:Content<br>
00:22:00.000 : en:Credits<br>
<br>
<b><span style="text-decoration: underline">Episode 13: Little Beach Party</span></b><br>
General<br>
Complete name : Zoey.101.S01E13.Little.Beach.Party.540p.PMTP.WEB-DL.AAC2.0.x264-Samuel.mkv<br>
Format : Matroska<br>
Format version : Version 4<br>
File size : 743 MiB<br>
Duration : 22 min 31 s<br>
Overall bit rate : 4 612 kb/s<br>
Frame rate : 23.976 FPS<br>
Encoded date : 2023-12-23 05:40:33 UTC<br>
Writing application : mkvmerge v72.0.0 ('Minuano (Six-eight)') 64-bit<br>
Writing library : libebml v1.4.4 + libmatroska v1.7.1<br>
<br>
Video<br>
ID : 1<br>
Format : AVC<br>
Format/Info : Advanced Video Codec<br>
Format profile : High@L4<br>
Format settings : CABAC / 5 Ref Frames<br>
Format settings, CABAC : Yes<br>
Format settings, Reference frames : 5 frames<br>
Codec ID : V_MPEG4/ISO/AVC<br>
Duration : 22 min 31 s<br>
Bit rate : 4 500 kb/s<br>
Width : 720 pixels<br>
Height : 540 pixels<br>
Display aspect ratio : 4:3<br>
Frame rate mode : Constant<br>
Frame rate : 23.976 (24000/1001) FPS<br>
Color space : YUV<br>
Chroma subsampling : 4:2:0<br>
Bit depth : 8 bits<br>
Scan type : Progressive<br>
Bits/(Pixel*Frame) : 0.483<br>
Stream size : 722 MiB (97%)<br>
Writing library : x264 core 161 r3015 4c2aafd<br>
Encoding settings : cabac=1 / ref=5 / deblock=1:0:0 / analyse=0x3:0x113 / me=hex / subme=8 / psy=1 / psy_rd=1.00:0.00 / mixed_ref=1 / me_range=16 / chroma_me=1 / trellis=2 / 8x8dct=1 / cqm=0 / deadzone=21,11 / fast_pskip=1 / chroma_qp_offset=-2 / threads=6 / lookahead_threads=1 / sliced_threads=0 / nr=0 / decimate=1 / interlaced=0 / bluray_compat=0 / stitchable=1 / constrained_intra=0 / bframes=3 / b_pyramid=2 / b_adapt=1 / b_bias=0 / direct=3 / weightb=1 / open_gop=0 / weightp=2 / keyint=48 / keyint_min=4 / scenecut=0 / intra_refresh=0 / rc_lookahead=48 / rc=2pass / mbtree=1 / bitrate=4500 / ratetol=1.0 / qcomp=0.60 / qpmin=0 / qpmax=69 / qpstep=4 / cplxblur=20.0 / qblur=0.5 / vbv_maxrate=5400 / vbv_bufsize=4500 / nal_hrd=none / filler=0 / ip_ratio=1.40 / aq=1:1.00<br>
Default : Yes<br>
Forced : No<br>
<br>
Audio<br>
ID : 2<br>
Format : AAC LC<br>
Format/Info : Advanced Audio Codec Low Complexity<br>
Codec ID : A_AAC-2<br>
Duration : 22 min 31 s<br>
Bit rate : 125 kb/s<br>
Channel(s) : 2 channels<br>
Channel layout : L R<br>
Sampling rate : 48.0 kHz<br>
Frame rate : 46.875 FPS (1024 SPF)<br>
Compression mode : Lossy<br>
Stream size : 20.1 MiB (3%)<br>
Language : English<br>
Default : Yes<br>
Forced : No<br>
<br>
Text<br>
ID : 3<br>
Format : UTF-8<br>
Codec ID : S_TEXT/UTF8<br>
Codec ID/Info : UTF-8 Plain Text<br>
Duration : 22 min 27 s<br>
Bit rate : 81 b/s<br>
Frame rate : 0.414 FPS<br>
Count of elements : 558<br>
Stream size : 13.5 KiB (0%)<br>
Language : English<br>
Default : No<br>
Forced : No<br>
<br>
Menu<br>
00:00:01.000 : en:Intro<br>
00:00:53.000 : en:Content<br>
00:22:02.000 : en:Credits</div>
</div><br>
<b>Screenshots</b><br>
<img src="https://i.imgur.com/yr59S20.png" class="bbCodeImage LbImage" alt="[​IMG]" data-url="https://i.imgur.com/yr59S20.png" style=""><br>
<a href="https://imgur.com/a/Jxm5yEw" target="_blank" class="externalLink" rel="nofollow"><b>More Screenshots</b></a><br>
<br>
<b>Download</b><br>
<div class="bbCodeBlock bbCodeVfcHH HiddenContent">
<div class="attribution type">Hidden Content:</div>
<blockquote>You must reply before you can see the hidden data contained here.</blockquote>
</div></div>
<div class="messageTextEndMarker">&nbsp;</div>
</blockquote>
</article>]]></description>
                <author><![CDATA[Samuel]]></author>
                </item>

                </channel></rss>